<?xml version="1.0" encoding="UTF-8" standalone="no"?><!DOCTYPE svg PUBLIC "-//W3C//DTD SVG 1.1//EN" "http://www.w3.org/Graphics/SVG/1.1/DTD/svg11.dtd"><svg width="100%" height="100%" viewBox="0 0 1025 1025" version="1.1" xmlns="http://www.w3.org/2000/svg" xmlns:xlink="http://www.w3.org/1999/xlink" xml:space="preserve" xmlns:serif="http://www.serif.com/" style="fill-rule:evenodd;clip-rule:evenodd;stroke-linejoin:round;stroke-miterlimit:2;"><rect id="logo-greyed" x="0.202" y="0.452" width="1024" height="1024" style="fill:none;"/><clipPath id="_clip1"><rect x="0.202" y="0.452" width="1024" height="1024"/></clipPath><g clip-path="url(#_clip1)"><g id="logo_baked"><path id="logo_baked1" serif:id="logo_baked" d="M512.202,1024.45c-282.581,0 -512,-229.419 -512,-512c0,-282.58 229.419,-512 512,-512c282.58,0 512,229.42 512,512c0,96.526 -26.769,186.848 -73.282,263.943c-26.689,44.103 -25.492,99.657 3.073,142.569c9.636,14.492 19.619,29.489 28.925,43.47c8.153,12.247 8.905,27.986 1.959,40.955c-6.947,12.969 -20.466,21.064 -35.178,21.063c-142.023,0 -437.497,0 -437.497,0Zm49.368,-586.83c111.626,0 202.251,90.626 202.251,202.251c0,111.626 -90.625,202.251 -202.251,202.251c-111.625,0 -202.251,-90.625 -202.251,-202.251c0,-111.625 90.626,-202.251 202.251,-202.251Z" style="fill:url(#_Linear2);"/></g></g><defs><linearGradient id="_Linear2" x1="0" y1="0" x2="1" y2="0" gradientUnits="userSpaceOnUse" gradientTransform="matrix(881.795,908.8,-908.8,881.795,142.406,115.653)"><stop offset="0" style="stop-color:#6f808d;stop-opacity:1"/><stop offset="1" style="stop-color:#384254;stop-opacity:1"/></linearGradient></defs></svg>