<?xml version="1.0" standalone="no"?>
<!DOCTYPE svg PUBLIC "-//W3C//DTD SVG 20010904//EN"
 "http://www.w3.org/TR/2001/REC-SVG-20010904/DTD/svg10.dtd">
<svg version="1.0" xmlns="http://www.w3.org/2000/svg"
 width="700.000000pt" height="700.000000pt" viewBox="0 0 700.000000 700.000000"
 preserveAspectRatio="xMidYMid meet">
<metadata>
Created by potrace 1.11, written by Peter Selinger 2001-2013
</metadata>
<g transform="translate(0.000000,700.000000) scale(0.100000,-0.100000)"
fill="#000000" stroke="none">
<path d="M3367 6993 c-1 -1 -39 -3 -83 -4 -44 -1 -105 -5 -135 -9 -30 -4 -83
-11 -119 -14 -54 -6 -359 -65 -410 -80 -8 -2 -42 -12 -75 -21 -216 -61 -368
-121 -600 -236 -369 -183 -645 -382 -927 -669 -155 -158 -174 -178 -275 -307
-189 -243 -349 -515 -473 -808 -67 -157 -159 -446 -186 -585 -3 -14 -11 -56
-19 -95 -7 -38 -19 -106 -25 -150 -6 -44 -13 -93 -15 -110 -12 -81 -19 -239
-19 -415 0 -231 10 -359 40 -545 8 -49 17 -103 20 -120 3 -16 9 -46 14 -65 5
-19 11 -46 14 -60 7 -40 43 -168 71 -255 14 -44 28 -87 30 -95 2 -8 28 -76 58
-150 178 -442 428 -820 767 -1161 230 -232 438 -393 720 -559 97 -57 378 -200
394 -200 4 0 26 -9 49 -19 86 -39 288 -105 437 -145 154 -40 286 -65 425 -82
28 -3 61 -7 75 -10 87 -14 372 -17 1815 -17 l1610 0 53 23 c121 52 188 204
146 328 -8 24 -71 127 -138 230 -142 215 -169 266 -201 373 -73 242 -47 489
74 709 50 92 63 115 71 125 9 12 120 232 148 295 129 288 233 666 268 975 3
28 10 77 14 110 9 68 6 656 -4 695 -3 14 -8 48 -11 75 -5 53 -8 75 -30 195
-21 114 -23 126 -56 250 -302 1146 -1171 2067 -2294 2433 -126 41 -257 77
-325 91 -14 2 -50 10 -80 16 -140 27 -278 46 -413 56 -82 6 -396 12 -400 7z
m736 -3007 c490 -107 865 -432 1035 -898 87 -238 101 -539 36 -793 -65 -256
-198 -482 -389 -663 -186 -176 -428 -306 -655 -351 -30 -6 -68 -13 -85 -17
-59 -13 -339 -12 -415 1 -315 53 -546 171 -766 390 -307 305 -446 702 -400
1140 50 479 386 920 846 1113 59 24 202 67 260 78 19 3 55 9 80 14 78 14 367
5 453 -14z"/>
</g>
</svg>
